<?xml version="1.0" encoding="UTF-8" standalone="no"?>
<!-- Created with Inkscape (http://www.inkscape.org/) -->

<svg
   xmlns:dc="http://purl.org/dc/elements/1.1/"
   xmlns:cc="http://creativecommons.org/ns#"
   xmlns:rdf="http://www.w3.org/1999/02/22-rdf-syntax-ns#"
   xmlns:svg="http://www.w3.org/2000/svg"
   xmlns="http://www.w3.org/2000/svg"
   xmlns:sodipodi="http://sodipodi.sourceforge.net/DTD/sodipodi-0.dtd"
   xmlns:inkscape="http://www.inkscape.org/namespaces/inkscape"
   version="1.1"
   id="svg2"
   width="447"
   height="446"
   viewBox="0 0 447 446"
   sodipodi:docname="2019-05-26_22-31.svg"
   inkscape:version="0.92.4 (5da689c313, 2019-01-14)">
  <metadata
     id="metadata8">
    <rdf:RDF>
      <cc:Work
         rdf:about="">
        <dc:format>image/svg+xml</dc:format>
        <dc:type
           rdf:resource="http://purl.org/dc/dcmitype/StillImage" />
        <dc:title></dc:title>
      </cc:Work>
    </rdf:RDF>
  </metadata>
  <defs
     id="defs6" />
  <sodipodi:namedview
     pagecolor="#ffffff"
     bordercolor="#666666"
     borderopacity="1"
     objecttolerance="10"
     gridtolerance="10"
     guidetolerance="10"
     inkscape:pageopacity="0"
     inkscape:pageshadow="2"
     inkscape:window-width="1600"
     inkscape:window-height="822"
     id="namedview4"
     showgrid="false"
     inkscape:pagecheckerboard="true"
     inkscape:zoom="1.058296"
     inkscape:cx="94.50497"
     inkscape:cy="217.9372"
     inkscape:window-x="0"
     inkscape:window-y="24"
     inkscape:window-maximized="1"
     inkscape:current-layer="g88" />
  <g
     id="g88"
     transform="translate(0.94492224,-0.94491506)">
    <path
       style="fill:#dba369"
       d="m 447.02387,445.36159 c 0.048,-1.16495 0.28494,-1.4019 0.60416,-0.60417 0.28887,0.72187 0.25335,1.58438 -0.0789,1.91667 -0.33229,0.33229 -0.56864,-0.25834 -0.52522,-1.3125 z M 57.700577,255.19013 c -12.759864,-7.9115 -3.393057,-35.36805 21.668808,-63.51692 14.154866,-15.8984 30.345815,-28.45712 46.456705,-36.03477 7.33751,-3.45115 9.84173,-4.11982 16.8447,-4.4978 l 8.22586,-0.44399 3.52414,3.52414 c 3.30293,3.30293 3.52413,3.92857 3.52413,9.96758 0,12.61746 -8.58283,30.03287 -23.13643,46.94612 -3.36693,3.91282 -6.32811,9.06545 -9.48242,16.5 -2.52265,5.94573 -4.98007,11.2276 -5.46094,11.73748 -0.51688,0.54806 -1.53988,-0.67838 -2.50236,-3 -0.89542,-2.15988 -1.74793,-4.05673 -1.89446,-4.21524 -0.14654,-0.1585 -4.10651,2.60808 -8.79994,6.14796 -20.730206,15.6351 -40.171929,22.33914 -48.967793,16.88544 z m 17.744338,-7.94607 c 9.129081,-2.77077 19.274695,-8.99606 34.362765,-21.08478 l 2.36276,-1.89307 -3.61276,-8.33672 c -1.98702,-4.5852 -3.61276,-8.70749 -3.61276,-9.16065 0,-0.45315 1.47806,-0.82392 3.28458,-0.82392 3.12658,0 3.40152,0.31268 5.71542,6.5 1.33696,3.575 2.72232,6.5 3.07858,6.5 0.35625,0 2.75501,-2.3625 5.33056,-5.25 2.57555,-2.8875 6.14956,-6.825 7.94223,-8.75 10.98707,-11.79807 22.10087,-35.07769 20.2558,-42.42901 -1.51351,-6.03031 -10.62098,-5.45126 -24.64254,1.56675 -28.192865,14.11098 -61.682422,52.0776 -65.703227,74.48679 -1.983019,11.05198 1.281986,12.91059 15.238592,8.67461 z M 196.43867,228.81047 184.94492,217.67602 v 10.63445 10.63445 h -3 -3 v -17 c 0,-9.35 0.33046,-17 0.73435,-17 0.4039,0 5.8039,5.05516 12,11.23369 l 11.26565,11.23369 v -10.73369 -10.73369 h 3 3 v 17 c 0,9.35 -0.22781,17 -0.50625,17 -0.27844,0 -5.67844,-5.0105 -12,-11.13445 z m -51.49375,-6.36555 v -16.5 h 11 11 v 2.5 c 0,2.45833 -0.13333,2.5 -8,2.5 h -8 v 4.5 4.5 h 7.5 c 7.33333,0 7.5,0.0556 7.5,2.5 0,2.44444 -0.16667,2.5 -7.5,2.5 h -7.5 v 4.5 4.5 h 8.5 c 8.4,0 8.5,0.0294 8.5,2.5 v 2.5 h -11.5 -11.5 z m 83,2.5 v -14 h -4 c -3.6,0 -4,-0.25 -4,-2.5 v -2.5 h 11.5 11.5 v 2.5 c 0,2.2963 -0.36667,2.5 -4.5,2.5 h -4.5 v 14 14 h -3 -3 z m 25,-3.05902 c 0,-10.15732 0.37306,-16.82845 0.9221,-16.48912 0.50716,0.31344 4.21966,5.2861 8.25,11.05035 4.03035,5.76425 7.59213,10.48436 7.91509,10.48912 0.32295,0.005 4.10872,-4.94133 8.41281,-10.99133 4.30409,-6.05 7.97736,-11 8.16281,-11 0.18546,0 0.33719,7.65 0.33719,17 v 17 h -3 -3 v -8.72251 -8.72251 l -5.01979,6.97251 c -2.76088,3.83488 -5.45198,6.97251 -5.98021,6.97251 -0.52823,0 -3.21933,-3.13763 -5.98021,-6.97251 l -5.01979,-6.97251 v 8.72251 8.72251 h -3 -3 z m 47.62062,8.80902 c 1.94962,-4.5375 5.19505,-12.18297 7.21207,-16.98993 2.01702,-4.80696 3.93557,-8.74446 4.26344,-8.75 0.4404,-0.007 11.82082,25.57374 14.7372,33.12665 0.18334,0.47481 -1.24426,0.86328 -3.17244,0.86328 -3.11993,0 -3.63292,-0.38522 -4.66089,-3.5 -1.14866,-3.48047 -1.18844,-3.5 -7.12858,-3.5 -5.88161,0 -5.99596,0.0538 -7.43587,3.5 -1.20252,2.87804 -1.98637,3.5 -4.41104,3.5 h -2.94865 z m 14.37938,-4.62788 c 0,-1.23312 -3.05666,-8.416 -3.39596,-7.98021 -0.15334,0.19695 -1.02334,2.27059 -1.93332,4.60809 l -1.65453,4.25 h 3.49191 c 1.92054,0 3.4919,-0.39504 3.4919,-0.87788 z m 26.42371,10.85853 c -11.02561,-5.45769 -11.2772,-22.76049 -0.41967,-28.86276 4.13514,-2.32408 9.95834,-2.72417 14.84674,-1.02006 3.18554,1.11048 3.79001,2.34388 2.29983,4.69271 -0.65844,1.03785 -1.70584,1.05328 -5.34921,0.0788 -4.03239,-1.0785 -4.9024,-0.99449 -7.91369,0.7642 -6.56155,3.83215 -7.96731,12.00741 -3.01732,17.5474 2.29044,2.56345 3.65425,3.21536 6.75,3.22656 2.13379,0.008 5.08014,-0.34532 6.54744,-0.78453 2.1519,-0.64413 2.88037,-0.40145 3.7668,1.25485 2.49835,4.66821 -9.90761,6.86645 -17.51092,3.1028 z m 30.82629,0.5839 c -3.13312,-1.41521 -4.24902,-3.82909 -2.32098,-5.02068 0.51096,-0.31579 2.95677,-0.0318 5.43515,0.63104 5.28397,1.41325 9.63583,0.059 9.63583,-2.99848 0,-2.41548 -2.37674,-4.44133 -8.16448,-6.95914 -7.49324,-3.25975 -9.09497,-9.11169 -3.91244,-14.29421 2.35053,-2.35053 3.79033,-2.92308 7.35077,-2.92308 4.16185,0 10.72615,1.63008 10.72615,2.66357 0,0.25735 -0.4582,1.32407 -1.01823,2.37049 -0.83389,1.55815 -1.47929,1.72728 -3.5651,0.93426 -3.79948,-1.44456 -8.00288,-1.17183 -9.48624,0.6155 -1.94167,2.33958 -0.16769,4.46624 6.35656,7.62031 3.07645,1.48728 6.07043,3.59519 6.65328,4.68426 1.75724,3.28344 1.2196,7.81422 -1.27083,10.70952 -1.89239,2.20003 -3.34949,2.77762 -7.75,3.07204 -3.35955,0.22478 -6.65474,-0.19538 -8.66944,-1.1054 z"
       id="path102"
       inkscape:connector-curvature="0" />
    <path
       style="fill:#6a9fd6"
       d="m 447.02387,445.36159 c 0.048,-1.16495 0.28494,-1.4019 0.60416,-0.60417 0.28887,0.72187 0.25335,1.58438 -0.0789,1.91667 -0.33229,0.33229 -0.56864,-0.25834 -0.52522,-1.3125 z M 57.700577,255.25666 c -12.698838,-8.18151 -3.422411,-35.40161 21.668808,-63.58345 14.154866,-15.8984 30.345815,-28.45712 46.456705,-36.03477 7.33751,-3.45115 9.84173,-4.11982 16.8447,-4.4978 l 8.22586,-0.44399 3.52414,3.52414 c 3.30293,3.30293 3.52413,3.92857 3.52413,9.96758 0,12.61746 -8.58283,30.03287 -23.13643,46.94612 -3.36693,3.91282 -6.32811,9.06545 -9.48242,16.5 -2.52265,5.94573 -4.92129,11.16882 -5.33031,11.60685 -0.40902,0.43802 -1.51611,-1.2262 -2.46021,-3.69829 l -1.71654,-4.49469 -6.68705,5.39849 c -8.38191,6.76678 -20.060321,13.8674 -28.332331,17.22643 -8.322267,3.37944 -19.158405,4.12223 -23.099052,1.58338 z m 18.794753,-8.41804 c 3.327728,-1.05816 9.267414,-3.82962 13.199301,-6.15881 8.684796,-5.14474 22.250289,-15.70081 22.250289,-17.31421 0,-0.6445 -1.1741,-3.81531 -2.60911,-7.04625 -4.81856,-10.84899 -4.76909,-10.37443 -1.08156,-10.37443 3.09612,0 3.38191,0.32644 5.69067,6.5 1.33696,3.575 2.71862,6.5 3.07036,6.5 0.56672,0 5.71425,-5.39644 13.84909,-14.51879 10.8659,-12.18492 21.47829,-34.77604 19.68772,-41.91022 -1.51351,-6.03031 -10.62098,-5.45126 -24.64254,1.56675 -28.192865,14.11098 -61.682422,52.0776 -65.703227,74.48679 -2.031488,11.32211 1.326733,13.02693 16.289007,8.26917 z m 120.44959,-18.17621 -11.5,-11.21749 -0.28383,10.75 c -0.28209,10.68395 -0.29899,10.75 -2.75,10.75 h -2.46617 v -17.23437 -17.23437 l 12,11.96874 12,11.96874 v -11.23437 -11.23437 h 2.5 2.5 v 17 c 0,9.35 -0.1125,16.98537 -0.25,16.96749 -0.1375,-0.0179 -5.425,-5.08038 -11.75,-11.25 z m -52,-6.21749 v -16.5 h 11 11 v 2.5 c 0,2.45833 -0.13333,2.5 -8,2.5 h -8 v 4.5 4.5 h 7.5 c 7.33333,0 7.5,0.0556 7.5,2.5 0,2.44444 -0.16667,2.5 -7.5,2.5 h -7.5 v 4.5 4.5 h 8.5 c 8.4,0 8.5,0.0294 8.5,2.5 v 2.5 h -11.5 -11.5 z m 84,2.5 v -14 h -4.5 c -4.13333,0 -4.5,-0.2037 -4.5,-2.5 v -2.5 h 11.5 11.5 v 2.5 c 0,2.2963 -0.36667,2.5 -4.5,2.5 h -4.5 v 14 14 h -2.5 -2.5 z m 25,-2.5 c 0,-9.075 0.18474,-16.5 0.41054,-16.5 0.2258,0 3.89364,4.96058 8.15077,11.02352 l 7.74023,11.02352 6.3662,-8.77352 c 11.53279,-15.89381 10.21285,-16.27611 10.2767,2.97648 l 0.0556,16.75 h -2.46247 c -2.41605,0 -2.4679,-0.17232 -2.75,-9.13993 l -0.28753,-9.13993 -5.40558,7.63993 c -2.97307,4.20196 -5.55556,7.63993 -5.73886,7.63993 -0.18331,0 -2.7008,-3.2581 -5.59442,-7.24021 l -5.26114,-7.24022 -0.28893,8.74022 c -0.28235,8.54109 -0.34501,8.74021 -2.75,8.74021 h -2.46107 z m 44,15.93186 c 0,-0.75765 11.46227,-27.52747 13.237,-30.91467 1.36352,-2.60238 1.54643,-2.30485 8.32857,13.54772 3.81394,8.9147 7.08443,16.59701 7.26776,17.07181 0.18334,0.47481 -1.04812,0.86328 -2.73658,0.86328 -2.56325,0 -3.31126,-0.57764 -4.5323,-3.5 -1.44478,-3.45784 -1.53589,-3.5 -7.56445,-3.5 -6.02856,0 -6.11967,0.0422 -7.56445,3.5 -1.11541,2.66955 -2.05238,3.5 -3.94897,3.5 -1.36762,0 -2.48658,-0.25566 -2.48658,-0.56814 z m 17.50471,-13.18186 c -0.3901,-0.9625 -1.15727,-2.9875 -1.70482,-4.5 -0.54755,-1.5125 -1.30445,-2.75 -1.68202,-2.75 -0.37756,0 -1.43699,2.025 -2.35429,4.5 l -1.66782,4.5 h 4.05911 c 3.46935,0 3.95606,-0.25426 3.34984,-1.75 z m 25.99529,11.47943 c -4.50287,-2.51898 -8.51388,-9.23298 -8.47804,-14.19132 0.0328,-4.53421 3.32566,-10.93738 6.95285,-13.52017 3.90598,-2.78131 10.53165,-3.66596 15.40661,-2.05707 3.61694,1.19369 4.30958,2.4017 2.76919,4.82967 -0.65844,1.03785 -1.70584,1.05328 -5.34921,0.0788 -4.03239,-1.0785 -4.9024,-0.99449 -7.91369,0.7642 -6.57499,3.84 -7.96767,12.007 -2.99628,17.57095 2.40929,2.69646 3.61821,3.24102 7.25,3.26577 2.39721,0.0163 5.34366,-0.32942 6.54767,-0.76835 1.67708,-0.61139 2.44116,-0.32706 3.26679,1.21564 0.92481,1.72803 0.65678,2.23136 -1.88944,3.54806 -4.27749,2.21197 -10.85219,1.90103 -15.56645,-0.73621 z m 30.75,0.83512 c -3.53737,-1.5978 -3.99879,-2.69822 -1.87164,-4.4636 0.97918,-0.81264 2.15647,-0.8481 4.0651,-0.12245 6.07899,2.31123 10.55654,0.7571 10.55654,-3.6641 0,-1.78201 -1.28011,-2.93181 -5.80983,-5.2184 -6.35218,-3.20657 -7.84083,-4.5697 -8.29549,-7.596 -1.22333,-8.14273 7.18859,-12.80715 16.9561,-9.40217 3.53022,1.23064 3.55447,1.27644 2.10723,3.98062 -0.82231,1.5365 -1.44093,1.73347 -2.93426,0.93426 -2.87745,-1.53996 -8.6105,-1.21557 -10.09332,0.57111 -1.94167,2.33958 -0.16769,4.46624 6.35656,7.62031 3.07645,1.48728 6.07043,3.59519 6.65328,4.68426 1.75724,3.28344 1.2196,7.81422 -1.27083,10.70952 -1.89239,2.20003 -3.34949,2.77762 -7.75,3.07204 -3.35955,0.22478 -6.65474,-0.19538 -8.66944,-1.1054 z"
       id="path100"
       inkscape:connector-curvature="0" />
    <path
       style="fill:#909296"
       d="m 447.02387,445.36159 c 0.048,-1.16495 0.28494,-1.4019 0.60416,-0.60417 0.28887,0.72187 0.25335,1.58438 -0.0789,1.91667 -0.33229,0.33229 -0.56864,-0.25834 -0.52522,-1.3125 z M 57.700577,255.25666 c -12.698838,-8.18151 -3.422411,-35.40161 21.668808,-63.58345 14.154866,-15.8984 30.345815,-28.45712 46.456705,-36.03477 7.33751,-3.45115 9.84173,-4.11982 16.8447,-4.4978 l 8.22586,-0.44399 3.52414,3.52414 c 3.30293,3.30293 3.52413,3.92857 3.52413,9.96758 0,3.84931 -0.80905,8.79501 -2.00957,12.28436 -3.68922,10.72291 -12.92057,25.61698 -22.43934,36.20414 -2.92297,3.25105 -5.93511,8.52469 -9.19861,16.10494 l -4.85248,11.27099 -1.84352,-4.47756 -1.84351,-4.47756 -6.65649,5.37383 c -8.35383,6.74412 -20.039734,13.84679 -28.301771,17.20177 -8.322267,3.37944 -19.158405,4.12223 -23.099052,1.58338 z m 18.794753,-8.41804 c 3.327728,-1.05816 9.267414,-3.82962 13.199301,-6.15881 8.684796,-5.14474 22.250289,-15.70081 22.250289,-17.31421 0,-0.6445 -1.1741,-3.81531 -2.60911,-7.04625 -4.76427,-10.72677 -4.71487,-10.37443 -1.45451,-10.37443 2.64997,0 3.11555,0.58285 5.6734,7.10236 l 2.78651,7.10236 5.55186,-5.9502 c 9.54536,-10.23024 11.54666,-12.62015 15.72071,-18.77331 8.43093,-12.4284 14.31956,-27.40688 12.93831,-32.91022 -1.51351,-6.03031 -10.62098,-5.45126 -24.64254,1.56675 -28.192865,14.11098 -61.682422,52.0776 -65.703227,74.48679 -2.031488,11.32211 1.326733,13.02693 16.289007,8.26917 z m 120.44959,-18.17621 -11.5,-11.21749 -0.28383,10.75 c -0.28209,10.68395 -0.29899,10.75 -2.75,10.75 h -2.46617 v -16.60064 -16.60064 l 11.75,11.01763 11.75,11.01763 0.28275,-10.91699 c 0.28136,-10.86308 0.29494,-10.91699 2.75,-10.91699 h 2.46725 v 17 c 0,9.35 -0.1125,16.98537 -0.25,16.96749 -0.1375,-0.0179 -5.425,-5.08038 -11.75,-11.25 z m -52,-6.21749 v -16.5 h 11 11 v 2.5 c 0,2.47059 -0.1,2.5 -8.5,2.5 h -8.5 v 4.5 4.5 h 7.5 c 7.33333,0 7.5,0.0556 7.5,2.5 0,2.44444 -0.16667,2.5 -7.5,2.5 h -7.5 v 4.5 4.5 h 8.5 c 8.4,0 8.5,0.0294 8.5,2.5 v 2.5 h -11 -11 z m 84,2.5 v -14 h -4.5 c -4.13333,0 -4.5,-0.2037 -4.5,-2.5 v -2.5 h 11 11 v 2.5 c 0,2.25 -0.4,2.5 -4,2.5 h -4 v 14 14 h -2.5 -2.5 z m 25,-2.71193 v -16.71194 l 7.75,11.1788 c 4.2625,6.14834 7.975,11.18814 8.25,11.19956 0.275,0.0114 4.03442,-4.92368 8.35426,-10.96687 4.31985,-6.04319 8.03235,-10.98762 8.25,-10.98762 0.21766,0 0.39574,7.425 0.39574,16.5 v 16.5 h -2.5 c -2.48148,0 -2.5,-0.0667 -2.5,-9 0,-4.95 -0.3375,-8.98571 -0.75,-8.96824 -0.4125,0.0175 -2.91297,3.16747 -5.55659,7 -2.64363,3.83253 -5.19163,6.96824 -5.66223,6.96824 -0.47059,0 -3.03262,-3.0375 -5.6934,-6.75 l -4.83778,-6.75 -0.28893,8.75 c -0.28238,8.55149 -0.34477,8.75 -2.75,8.75 h -2.46107 z m 44,16.1306 c 0,-1.16814 13.26401,-31.4638 13.96516,-31.89714 0.39769,-0.24578 3.90001,6.96133 7.78294,16.0158 l 7.05987,16.46267 h -2.89056 c -2.35829,0 -3.15986,-0.6445 -4.35296,-3.5 -1.4582,-3.48996 -1.481,-3.5 -7.9487,-3.5 h -6.48629 l -1.26562,3.5 c -0.94673,2.61813 -1.84491,3.5 -3.56473,3.5 -1.26451,0 -2.29911,-0.2616 -2.29911,-0.58133 z m 18,-11.83576 c 0,-0.22941 -0.9271,-2.57994 -2.06023,-5.22342 l -2.06023,-4.80632 -1.93977,4.33262 c -1.06687,2.38294 -1.93977,4.73348 -1.93977,5.22341 0,0.48994 1.8,0.8908 4,0.8908 2.2,0 4,-0.18769 4,-0.41709 z m 25.5,10.14652 c -4.50287,-2.51898 -8.51388,-9.23298 -8.47804,-14.19132 0.0333,-4.6014 3.34393,-10.94993 7.11151,-13.63704 6.42915,-4.58539 21.38318,-2.59435 17.62631,2.34683 -1.07112,1.40878 -1.86401,1.49195 -5.29442,0.5554 -7.64249,-2.08651 -14.03796,3.13654 -13.82417,11.28991 0.13845,5.28017 2.57148,8.59062 7.37042,10.02841 3.04311,0.91174 4.91703,0.92894 7.7132,0.0708 2.8423,-0.87233 3.87224,-0.85228 4.46904,0.087 1.44621,2.27617 0.81479,3.52193 -2.34307,4.62276 -4.86882,1.69728 -9.96482,1.28084 -14.35078,-1.17274 z m 30.75,0.7797 c -1.7875,-0.77692 -3.25,-1.82921 -3.25,-2.33841 0,-1.75874 2.4868,-2.92887 4.5,-2.11742 3.062,1.23418 8.9575,1.0892 10.3,-0.2533 0.66,-0.66 1.2,-2.22852 1.2,-3.4856 0,-1.78201 -1.28011,-2.93181 -5.80983,-5.2184 -6.35218,-3.20657 -7.84083,-4.5697 -8.29549,-7.596 -1.20399,-8.01405 6.65454,-12.64471 15.9561,-9.40217 3.25718,1.13546 3.56504,1.65499 2.54926,4.30207 -0.4644,1.21021 -1.0379,1.32909 -2.53821,0.52616 -1.06603,-0.57053 -3.83355,-0.89979 -6.15004,-0.73169 -3.77166,0.27369 -4.2451,0.59558 -4.53059,3.08023 -0.2862,2.49094 0.22498,3.01574 5,5.1332 6.79774,3.01441 9.2188,5.71118 9.2188,10.26864 0,7.57282 -9.40737,11.6326 -18.15,7.83269 z"
       id="path98"
       inkscape:connector-curvature="0" />
    <path
       style="fill:#ffffff"
       d="m 59.270392,255.48579 c -15.540179,-6.75964 -4.132887,-38.15121 24.674523,-67.90148 17.514145,-18.08738 35.594185,-30.52638 50.931505,-35.04071 29.75329,-8.75745 30.56233,20.03498 1.57728,56.13252 -5.35095,6.66398 -8.58738,11.94791 -11.63761,19 -2.3239,5.37284 -4.57249,10.17318 -4.99685,10.66743 -0.42437,0.49424 -1.50668,-0.93857 -2.40514,-3.18404 l -1.63356,-4.08267 -8.85871,6.72568 c -14.872878,11.29173 -32.078305,19.22376 -41.437014,19.10326 -1.671945,-0.0215 -4.468436,-0.66053 -6.214424,-1.41999 z m 12.674523,-6.61538 c 2.475,-0.56408 7.875,-2.68658 12,-4.71666 8.047561,-3.96053 26.710895,-17.29185 27.656045,-19.75486 0.31524,-0.82152 -0.44386,-3.84724 -1.68689,-6.72382 -5.57152,-12.89338 -5.36615,-11.73015 -2.07094,-11.73015 2.69327,0 3.14267,0.55469 5.67141,7 1.51049,3.85 3.08631,7 3.50182,7 0.98963,0 10.92856,-11.90232 10.92856,-13.08745 0,-0.5019 0.51289,-0.91255 1.13976,-0.91255 1.35137,0 2.30875,-1.1567 9.03214,-10.91259 10.38659,-15.07132 15.57168,-31.20097 11.37807,-35.39458 -2.11673,-2.11674 -6.60681,-2.15317 -13.61847,-0.1105 -29.06694,8.46791 -73.581064,55.77625 -76.619221,81.42873 -0.46845,3.95533 -0.209718,5.09151 1.563175,6.8644 2.36066,2.36066 4.491538,2.56179 11.124541,1.05003 z m 73.000005,-26.42549 v -16.5 h 11 11 v 2.5 c 0,2.47059 -0.1,2.5 -8.5,2.5 h -8.5 v 4.5 4.5 h 7.5 c 7.33333,0 7.5,0.0556 7.5,2.5 0,2.44444 -0.16667,2.5 -7.5,2.5 h -7.5 v 4.5 4.5 h 8.5 c 8.4,0 8.5,0.0294 8.5,2.5 v 2.5 h -11 -11 z m 35,-0.10064 v -16.60064 l 11.75,11.01763 11.75,11.01763 0.28275,-10.91699 c 0.28136,-10.86308 0.29494,-10.91699 2.75,-10.91699 h 2.46725 v 16.5 c 0,9.075 -0.28588,16.5 -0.6353,16.5 -0.34941,0 -5.63691,-4.83373 -11.75,-10.74162 l -11.1147,-10.74162 -0.28383,10.74162 c -0.28207,10.67504 -0.29912,10.74162 -2.75,10.74162 h -2.46617 z m 49,2.60064 v -14 h -4.5 c -4.13333,0 -4.5,-0.2037 -4.5,-2.5 v -2.5 h 11 11 v 2.5 c 0,2.25 -0.4,2.5 -4,2.5 h -4 v 14 14 h -2.5 -2.5 z m 25,-2.71193 v -16.71194 l 7.75,11.1788 c 4.2625,6.14834 7.975,11.18814 8.25,11.19956 0.275,0.0114 4.03442,-4.92368 8.35426,-10.96687 4.31985,-6.04319 8.03235,-10.98762 8.25,-10.98762 0.21766,0 0.39574,7.425 0.39574,16.5 v 16.5 h -2.46379 c -2.42744,0 -2.46801,-0.14165 -2.75,-9.60142 l -0.28621,-9.60142 -5.30293,7.60142 c -2.91662,4.18078 -5.68962,7.60142 -6.16223,7.60142 -0.47261,0 -3.03628,-3.0375 -5.69706,-6.75 l -4.83778,-6.75 -0.28893,8.75 c -0.28238,8.55149 -0.34477,8.75 -2.75,8.75 h -2.46107 z m 44,16.1306 c 0,-1.16814 13.26401,-31.4638 13.96516,-31.89714 0.39769,-0.24578 3.90001,6.96133 7.78294,16.0158 l 7.05987,16.46267 h -2.91208 c -2.46402,0 -3.15834,-0.61546 -4.51257,-4 l -1.60048,-4 h -5.96568 -5.96568 l -1.67574,3.98983 c -1.24612,2.96694 -2.25258,3.99244 -3.92574,4 -1.2375,0.006 -2.25,-0.25143 -2.25,-0.57116 z m 18,-11.83576 c 0,-0.22941 -0.9271,-2.57994 -2.06023,-5.22342 l -2.06023,-4.80632 -1.93977,4.33262 c -1.06687,2.38294 -1.93977,4.73348 -1.93977,5.22341 0,0.48994 1.8,0.8908 4,0.8908 2.2,0 4,-0.18769 4,-0.41709 z m 25.96189,10.16709 c -4.97918,-2.51085 -8.97855,-8.8687 -8.93993,-14.21189 0.0322,-4.45455 3.30416,-10.92208 6.77636,-13.3945 4.20352,-2.99317 10.81392,-3.75029 15.53198,-1.77896 3.39318,1.41776 3.65863,1.78752 2.64408,3.68322 -0.77277,1.44393 -1.65449,1.88496 -2.80107,1.40109 -5.51775,-2.32855 -9.65221,-1.69733 -13.39453,2.04499 -4.98831,4.98831 -4.19619,14.06125 1.53259,17.55433 3.54449,2.16123 8.73594,2.53195 11.88155,0.84847 1.58277,-0.84707 2.26054,-0.78902 2.91894,0.25 1.61205,2.54399 0.88748,3.75942 -2.86186,4.80067 -5.56847,1.54644 -8.34259,1.29646 -13.28811,-1.19742 z m 31.35988,0.97676 c -4.21251,-1.62598 -4.84325,-2.39349 -3.39804,-4.13487 1.05323,-1.26906 1.73013,-1.27248 5.26139,-0.0266 5.20379,1.83601 9.15695,0.28503 9.62689,-3.777 0.27676,-2.39221 -0.3514,-3.0318 -5.55983,-5.66101 -6.41348,-3.23751 -7.90211,-4.59608 -8.3575,-7.6273 -0.8468,-5.6365 3.47338,-10.50857 9.30566,-10.49442 4.06882,0.01 9.79966,2.04638 9.79966,3.48241 0,2.2224 -1.78491,2.7381 -5.37551,1.5531 -4.69343,-1.54898 -8.62449,0.0415 -8.62449,3.48948 0,2.14664 0.89854,2.99144 5.34865,5.02877 6.78659,3.107 9.05135,5.61355 9.05135,10.01767 0,7.07972 -8.87643,11.31556 -17.07823,8.14975 z"
       id="path96"
       inkscape:connector-curvature="0" />
    <path
       style="fill:#ffffff"
       d="m 59.270392,255.48579 c -15.540179,-6.75964 -4.132887,-38.15121 24.674523,-67.90148 17.514145,-18.08738 35.594185,-30.52638 50.931505,-35.04071 17.93111,-5.27776 26.73347,3.52117 21.47818,21.46982 -2.58644,8.83359 -10.21674,22.24743 -18.58872,32.67841 -6.93398,8.63932 -10.23042,14.33267 -17.22697,29.75309 l -1.36116,3 -1.6986,-4.18404 -1.69861,-4.18404 -8.85871,6.72568 c -14.872878,11.29173 -32.078305,19.22376 -41.437014,19.10326 -1.671945,-0.0215 -4.468436,-0.66053 -6.214424,-1.41999 z m 12.674523,-6.61538 c 2.475,-0.56408 7.875,-2.68658 12,-4.71666 8.047561,-3.96053 26.710895,-17.29185 27.656045,-19.75486 0.31524,-0.82152 -0.44386,-3.84724 -1.68689,-6.72382 -5.5561,-12.85771 -5.34482,-11.73015 -2.19799,-11.73015 2.53195,0 3.03243,0.62711 5.26342,6.59505 1.35598,3.62728 2.87752,6.84995 3.3812,7.16148 1.02206,0.63216 10.19617,-9.26874 11.12518,-12.00653 0.3266,-0.9625 1.07638,-1.75 1.66619,-1.75 1.28121,0 2.29296,-1.23159 8.96475,-10.91259 10.38659,-15.07132 15.57168,-31.20097 11.37807,-35.39458 -2.11673,-2.11674 -6.60681,-2.15317 -13.61847,-0.1105 -29.06694,8.46791 -73.581064,55.77625 -76.619221,81.42873 -0.46845,3.95533 -0.209718,5.09151 1.563175,6.8644 2.36066,2.36066 4.491538,2.56179 11.124541,1.05003 z m 73.000005,-26.42549 v -16.5 h 10.5 10.5 v 2.5 c 0,2.45833 -0.13333,2.5 -8,2.5 h -8 v 4.5 4.5 h 7.5 c 7.33333,0 7.5,0.0556 7.5,2.5 0,2.44444 -0.16667,2.5 -7.5,2.5 h -7.5 v 4.5 4.5 h 8.5 c 8.4,0 8.5,0.0294 8.5,2.5 v 2.5 h -11 -11 z m 35,-0.23369 v -16.73369 l 11.26565,11.23369 c 6.1961,6.17853 11.5961,11.23369 12,11.23369 0.40389,0 0.73435,-4.95 0.73435,-11 0,-10.33333 0.12121,-11 2,-11 1.91974,0 2,0.66667 2,16.613 v 16.61299 l -11.75,-11.29898 -11.75,-11.29898 -0.28275,11.18598 c -0.26191,10.36143 -0.42777,11.18599 -2.25,11.18599 -1.87796,0 -1.96725,-0.75953 -1.96725,-16.73369 z m 49,2.73369 v -14 h -4.5 c -4.13333,0 -4.5,-0.2037 -4.5,-2.5 v -2.5 h 11 11 v 2.5 c 0,2.2963 -0.36667,2.5 -4.5,2.5 h -4.5 v 14 c 0,13.33333 -0.0952,14 -2,14 -1.90476,0 -2,-0.66667 -2,-14 z m 25,-2 c 0,-8.8 0.13867,-16 0.30816,-16 0.16949,0 3.63082,4.725 7.69184,10.5 4.06102,5.775 7.63485,10.49573 7.94184,10.4905 0.30699,-0.005 3.92382,-4.73022 8.03739,-10.5 4.11358,-5.76977 7.60108,-10.4905 7.75,-10.4905 0.14893,0 0.27077,7.2 0.27077,16 0,15.23499 -0.0939,16 -1.96379,16 -1.79787,0 -1.98797,-0.82376 -2.25,-9.75 l -0.28621,-9.75 -5.45482,7.75 c -3.00014,4.2625 -5.75735,7.75 -6.12713,7.75 -0.36977,0 -3.0901,-3.2625 -6.04518,-7.25 l -5.37287,-7.25 -0.28753,9.25 c -0.26193,8.4267 -0.46219,9.25 -2.25,9.25 -1.86819,0 -1.96247,-0.76865 -1.96247,-16 z m 44,15.41867 c 0,-1.45492 13.3108,-31.41867 13.95712,-31.41867 0.55412,0 10.46688,22.12349 13.77229,30.73725 0.31414,0.81862 -0.4352,1.26275 -2.13052,1.26275 -2.11752,0 -2.9196,-0.76107 -4.21557,-4 l -1.60048,-4 h -6.23973 -6.23973 l -1.57124,4 c -1.13185,2.88139 -2.15305,4 -3.65169,4 -1.14425,0 -2.08045,-0.2616 -2.08045,-0.58133 z m 18,-11.83576 c 0,-1.11705 -4.10411,-9.81214 -4.46229,-9.45395 -0.22662,0.22661 -1.32431,2.5403 -2.43933,5.14153 l -2.02731,4.72951 h 4.46447 c 2.45545,0 4.46446,-0.18769 4.46446,-0.41709 z m 26.27066,10.45327 c -10.18102,-4.62165 -12.12874,-18.71826 -3.68641,-26.68041 3.98355,-3.75697 9.44114,-4.96456 15.30313,-3.3861 4.0845,1.09985 4.86912,2.28817 3.22448,4.88358 -0.6584,1.03902 -1.33617,1.09707 -2.91894,0.25 -4.91756,-2.6318 -12.06954,-0.17631 -14.78583,5.07642 -3.91935,7.57918 1.39582,16.82033 9.67443,16.82033 2.22748,0 4.90148,-0.45572 5.94223,-1.01271 1.50427,-0.80506 2.1164,-0.59393 2.98533,1.02968 0.96533,1.80374 0.68186,2.21422 -2.42589,3.51272 -4.67829,1.95471 -8.20755,1.82388 -13.31253,-0.49351 z m 31.05111,0.63774 c -4.1696,-1.5401 -4.84881,-2.33395 -3.44454,-4.02599 0.99554,-1.19955 1.74345,-1.20016 5.21471,-0.004 5.22552,1.80034 9.25044,0.20388 9.72007,-3.85541 0.27676,-2.39221 -0.3514,-3.0318 -5.55983,-5.66101 -6.41348,-3.23751 -7.90211,-4.59608 -8.3575,-7.6273 -1.00609,-6.69674 4.15585,-11.16939 11.60201,-10.05277 5.14459,0.77148 7.79765,2.52751 6.62486,4.38492 -0.68572,1.08602 -1.59772,1.10547 -4.93601,0.10529 -3.51745,-1.05385 -4.45382,-0.99168 -6.64022,0.44091 -4.48785,2.94055 -2.81902,5.73355 5.61916,9.40436 4.99709,2.17386 6.83552,4.5184 6.83552,8.71729 0,3.92998 -1.76698,6.50469 -5.54837,8.08466 -3.99487,1.66916 -6.79178,1.69159 -11.12986,0.0893 z"
       id="path94"
       inkscape:connector-curvature="0" />
    <path
       style="fill:#ffffff"
       d="m 60.257828,255.84244 c -17.209046,-4.97899 -5.620179,-37.92363 24.187087,-68.75864 12.673519,-13.1105 23.916465,-21.90627 36.295595,-28.3954 14.3294,-7.51145 23.86037,-9.42416 30.72601,-6.16621 12.91868,6.13032 6.11992,29.87117 -16.65005,58.14095 -4.73513,5.87884 -7.8657,11.12704 -10.96002,18.37374 l -4.33158,10.14428 -1.79811,-4.23382 c -1.31442,-3.09493 -2.13216,-3.97519 -3.03997,-3.27238 -0.68303,0.52879 -3.71687,2.88845 -6.74187,5.2437 -11.753199,9.15097 -24.424626,16.12041 -33.703199,18.53717 -6.376351,1.66083 -9.30037,1.74167 -13.983893,0.38661 z m 19.637569,-9.74146 c 7.999528,-3.36105 21.306583,-11.98341 28.302183,-18.33853 l 4.75266,-4.31753 -3.95053,-8.75 -3.95053,-8.75 h 2.73245 c 2.45117,0 2.98624,0.6789 5.19787,6.59505 1.35598,3.62728 2.88969,6.85747 3.40825,7.17819 1.09333,0.67623 11.55267,-10.65918 11.55536,-12.52324 10e-4,-0.6875 0.56431,-1.25573 1.25181,-1.26273 1.97792,-0.0201 11.4579,-13.62529 16.36576,-23.48727 4.85132,-9.74835 6.58216,-18.39316 4.47203,-22.33596 -0.91229,-1.70464 -2.07276,-2.16404 -5.46642,-2.16404 -24.59324,0 -72.882719,43.76508 -83.54616,75.71845 -2.65166,7.9458 -2.638744,11.71802 0.04933,14.40609 1.784578,1.78458 2.899955,2.03271 6.970355,1.55063 2.665198,-0.31566 8.000211,-1.89926 11.855586,-3.51911 z m 66.049523,-23.65606 v -16.5 h 10 10 v 2.5 c 0,2.45833 -0.13333,2.5 -8,2.5 h -8 v 4.5 4.5 h 7.5 c 7.33333,0 7.5,0.0556 7.5,2.5 0,2.44444 -0.16667,2.5 -7.5,2.5 h -7.5 v 4.5 4.5 h 8.5 c 8.4,0 8.5,0.0294 8.5,2.5 v 2.5 h -10.5 -10.5 z m 34,-0.23369 v -16.73369 l 11.26565,11.23369 c 6.1961,6.17853 11.5961,11.23369 12,11.23369 0.40389,0 0.73435,-4.95 0.73435,-11 0,-10.33333 0.12121,-11 2,-11 1.91685,0 2,0.66667 2,16.03518 0,18.97793 0.99015,18.63217 -12.98025,4.53267 -5.21414,-5.26232 -9.82664,-9.56785 -10.25,-9.56785 -0.42336,0 -0.76975,4.95 -0.76975,11 0,10.33333 -0.12121,11 -2,11 -1.92032,0 -2,-0.66667 -2,-16.73369 z m 49,2.73369 v -14 h -4 c -3.6,0 -4,-0.25 -4,-2.5 v -2.5 h 10.5 10.5 v 2.5 c 0,2.2963 -0.36667,2.5 -4.5,2.5 h -4.5 v 14 c 0,13.33333 -0.0952,14 -2,14 -1.90476,0 -2,-0.66667 -2,-14 z m 25,-2 c 0,-8.8 0.13867,-16 0.30816,-16 0.16949,0 3.63082,4.725 7.69184,10.5 4.06102,5.775 7.70478,10.5 8.09724,10.5 0.39246,0 3.9487,-4.5 7.90276,-10 3.95406,-5.5 7.37163,-10 7.5946,-10 0.22297,0 0.4054,6.975 0.4054,15.5 0,14.73806 -0.0965,15.5 -1.96379,15.5 -1.79787,0 -1.98797,-0.82376 -2.25,-9.75 l -0.28621,-9.75 -5.45482,7.75 c -3.00014,4.2625 -5.70014,7.74479 -6,7.73841 -0.29985,-0.006 -2.7778,-3.15637 -5.50656,-7 -2.72877,-3.84362 -5.31627,-6.98841 -5.75,-6.98841 -0.43374,0 -0.78862,4.05 -0.78862,9 0,8.33333 -0.14815,9 -2,9 -1.91667,0 -2,-0.66667 -2,-16 z m 45.34725,12.75 c 0.75574,-1.7875 3.79928,-8.98133 6.76342,-15.98628 2.96413,-7.00496 5.65611,-12.74246 5.98218,-12.75 0.45328,-0.0105 10.71324,23.10546 13.63656,30.72353 0.30918,0.80571 -0.40411,1.26275 -1.97073,1.26275 -1.93598,0 -2.78764,-0.84605 -4.02654,-4 l -1.57125,-4 h -6.42875 -6.42876 l -1.57124,4 c -1.13634,2.89284 -2.15081,4 -3.66511,4 -1.97751,0 -2.01751,-0.18061 -0.71978,-3.25 z m 16.65275,-9.46657 c 0,-1.58219 -3.32037,-9.28343 -4.00253,-9.28343 -0.40195,0 -1.66588,2.25 -2.80873,5 l -2.0779,5 h 4.44458 c 2.44452,0 4.44458,-0.32246 4.44458,-0.71657 z m 28.47495,11.65608 c -1.66377,-0.48406 -4.5597,-2.46347 -6.43538,-4.39869 -2.92522,-3.01805 -3.47081,-4.3546 -3.83545,-9.39571 -0.69781,-9.64704 3.60822,-15.72773 12.4622,-17.59831 3.78305,-0.79925 11.33999,1.03133 11.31837,2.74174 -0.0298,2.35603 -1.47891,3.64292 -3.01108,2.67399 -2.24231,-1.41803 -7.72627,-1.1418 -11.00634,0.5544 -6.84595,3.54018 -7.83542,13.53051 -1.8682,18.86266 3.02482,2.7029 3.60603,2.84378 9.47239,2.29597 5.02634,-0.46937 6.36323,-0.28815 6.82902,0.92569 0.40033,1.04325 -0.48853,1.95542 -2.87853,2.95403 -3.83649,1.60298 -6.53536,1.69685 -11.047,0.38423 z m 30.6824,0.0655 c -4.0247,-0.95154 -5.61629,-2.36663 -4.8647,-4.32524 0.48768,-1.27087 1.12628,-1.26767 5.05366,0.0253 3.81542,1.25609 4.92155,1.27573 7.31234,0.12986 5.68154,-2.72309 4.00201,-6.75809 -4.35372,-10.45967 -5.60529,-2.48318 -7.30493,-4.60866 -7.30493,-9.1352 0,-4.54797 4.11492,-7.75659 9.83197,-7.66651 5.63675,0.0888 9.33477,1.82835 8.50175,3.99917 -0.32549,0.84822 -1.17678,1.31775 -1.89175,1.04339 -4.58823,-1.76067 -8.14423,-1.67669 -10.49044,0.24776 -3.28031,2.69063 -1.97251,4.83942 4.99046,8.19956 6.12786,2.95715 8.05801,5.15927 8.05801,9.19344 0,4.16906 -1.69924,6.71952 -5.54837,8.32779 -3.71415,1.55187 -4.38075,1.58201 -9.29428,0.42033 z"
       id="path92"
       inkscape:connector-curvature="0" />
    <path
       style="fill:#ffffff"
       d="m 63.444915,256.27283 c -7.867044,-1.7311 -10.642857,-5.31362 -10.642857,-13.73589 0,-14.5038 12.822452,-36.26629 33.642857,-57.09926 33.037565,-33.0575 67.217475,-44.50707 71.099005,-23.81672 1.83588,9.78605 -7.73381,30.6227 -21.86775,47.61399 -4.36279,5.24478 -5.76309,5.606 -3.30499,0.85256 1.94828,-3.76755 1.95292,-4.14259 0.0512,-4.14259 -1.03154,0 0.2123,-2.49916 3.85718,-7.75 10.2018,-14.69677 14.65185,-24.59812 14.82913,-32.99485 0.13341,-6.31841 -1.37022,-7.53867 -8.71315,-7.07111 -4.73373,0.30142 -8.27981,1.43271 -15.54187,4.95826 -24.44232,11.86613 -51.774817,39.52227 -63.536331,64.28868 -4.312154,9.08017 -5.590034,18.20859 -2.922439,20.87619 5.011216,5.01121 23.532529,-1.60518 40.49284,-14.46532 4.6001,-3.48802 9.18704,-6.95408 10.19321,-7.70236 1.63653,-1.21707 1.94501,-1.05892 2.92595,1.5 1.02271,2.66789 0.81057,3.11537 -3.15044,6.6452 -9.74213,8.68168 -27.13629,18.49692 -37.617419,21.22691 -5.865485,1.52776 -6.369886,1.5698 -9.794166,0.81631 z m 54.601595,-32.46634 c -1.10305,-3.16422 -0.97364,-3.4632 3.38606,-7.8229 l 4.53295,-4.53295 -2.65164,6.99714 c -3.36021,8.86692 -3.86528,9.38075 -5.26737,5.35871 z"
       id="path90"
       inkscape:connector-curvature="0" />
  </g>
</svg>
